<svg width="12" height="12" viewBox="0 0 12 12" fill="none" xmlns="http://www.w3.org/2000/svg">
<path id="Vector" d="M2.54786 8.40126C3.12775 8.40126 3.59786 8.87136 3.59786 9.45126V10.95C3.59786 11.5299 3.12775 12 2.54786 12H1.04913C0.46923 12 -0.000869751 11.5299 -0.000869751 10.95V9.45126C-0.000869751 8.87136 0.46923 8.40126 1.04913 8.40126H2.54786ZM2.54786 9.30126H1.04913C0.966288 9.30126 0.89913 9.36846 0.89913 9.45126V10.95C0.89913 11.0329 0.966288 11.1 1.04913 11.1H2.54786C2.6307 11.1 2.69786 11.0329 2.69786 10.95V9.45126C2.69786 9.36846 2.6307 9.30126 2.54786 9.30126ZM4.64798 9.6H11.5509C11.7994 9.6 12.0009 9.80148 12.0009 10.05C12.0009 10.2778 11.8316 10.4661 11.612 10.4959L11.5509 10.5H4.64798C4.39946 10.5 4.19798 10.2985 4.19798 10.05C4.19798 9.82218 4.36728 9.6339 4.58692 9.60408L4.64798 9.6ZM2.54786 4.20064C3.12775 4.20064 3.59786 4.67074 3.59786 5.25066V6.74934C3.59786 7.32924 3.12775 7.79934 2.54786 7.79934H1.04913C0.46923 7.79934 -0.000869751 7.32924 -0.000869751 6.74934V5.25066C-0.000869751 4.67074 0.46923 4.20064 1.04913 4.20064H2.54786ZM2.54786 5.10066H1.04913C0.966288 5.10066 0.89913 5.1678 0.89913 5.25066V6.74934C0.89913 6.8322 0.966288 6.89934 1.04913 6.89934H2.54786C2.6307 6.89934 2.69786 6.8322 2.69786 6.74934V5.25066C2.69786 5.1678 2.6307 5.10066 2.54786 5.10066ZM4.64798 5.4H11.5509C11.7994 5.4 12.0009 5.60148 12.0009 5.85C12.0009 6.07782 11.8316 6.2661 11.612 6.29592L11.5509 6.3H4.64798C4.39946 6.3 4.19798 6.09852 4.19798 5.85C4.19798 5.62218 4.36728 5.4339 4.58692 5.40408L4.64798 5.4ZM2.54786 0C3.12775 0 3.59786 0.4701 3.59786 1.05V2.54873C3.59786 3.12862 3.12775 3.59873 2.54786 3.59873H1.04913C0.46923 3.59873 -0.000869751 3.12862 -0.000869751 2.54873V1.05C-0.000869751 0.4701 0.46923 0 1.04913 0H2.54786ZM2.54786 0.9H1.04913C0.966288 0.9 0.89913 0.967158 0.89913 1.05V2.54873C0.89913 2.63157 0.966288 2.69873 1.04913 2.69873H2.54786C2.6307 2.69873 2.69786 2.63157 2.69786 2.54873V1.05C2.69786 0.967158 2.6307 0.9 2.54786 0.9ZM4.64798 1.2H11.5509C11.7994 1.2 12.0009 1.40147 12.0009 1.65C12.0009 1.87782 11.8316 2.06609 11.612 2.09589L11.5509 2.1H4.64798C4.39946 2.1 4.19798 1.89853 4.19798 1.65C4.19798 1.42218 4.36728 1.23391 4.58692 1.20411L4.64798 1.2Z" fill="#121212"/>
</svg>
